<?xml version="1.0" encoding="utf-8"?>
<!-- Generator: Adobe Illustrator 23.0.2, SVG Export Plug-In . SVG Version: 6.00 Build 0)  -->
<svg version="1.1" id="Layer_1" xmlns="http://www.w3.org/2000/svg" xmlns:xlink="http://www.w3.org/1999/xlink" x="0px" y="0px"
	 viewBox="0 0 608 431" style="enable-background:new 0 0 608 431;" xml:space="preserve">
<style type="text/css">
	.st0{fill-rule:evenodd;clip-rule:evenodd;fill:#0770E3;}
</style>
<title>Group 25</title>
<desc>Created with Sketch.</desc>
<g id="Design">
	<g transform="translate(-196.000000, -4552.000000)">
		<g id="Group-25" transform="translate(196.000000, 4552.000000)">
			<g id="Group" transform="translate(105.000000, 86.000000)">
				<path id="Fill-23" class="st0" d="M30.6,94.4c-2.4,2-5.7,5.4-8.7,10.6c-3,5.2-4.3,9.7-4.9,12.8c-0.5,2.5,0.7,5,2.9,6.3
					l68.7,39.6c8.4,4.8,19.1,2,23.9-6.4c4.8-8.4,2-19.1-6.4-23.9L37.5,93.8C35.3,92.5,32.6,92.8,30.6,94.4"/>
				<path id="Fill-25" class="st0" d="M150.1,121.6L150.1,121.6c8.5-5,11.4-16.2,6.5-24.9l-40.1-71.5c-1.3-2.3-3.8-3.5-6.3-3
					c-3.1,0.6-7.7,2-13,5.1c-5.3,3.1-8.7,6.5-10.8,9c-1.7,2-1.9,4.9-0.6,7.2l40.1,71.5C130.8,123.6,141.7,126.6,150.1,121.6"/>
				<path id="Fill-27" class="st0" d="M199,107L199,107c9.4,0,17-8,17-17.9V8c0-2.6-1.5-4.9-3.9-5.8C209.3,1.2,204.8,0,199,0
					s-10.3,1.2-13.1,2.2C183.6,3.1,182,5.4,182,8v81.1C182,99,189.6,107,199,107"/>
				<path id="Fill-29" class="st0" d="M285.4,157.3L285.4,157.3c4.8,8.4,15.6,11.2,23.9,6.4l68.7-39.6c2.2-1.3,3.4-3.8,2.9-6.3
					c-0.6-3.1-1.9-7.6-4.9-12.8c-3-5.2-6.3-8.6-8.7-10.6c-1.9-1.6-4.7-1.9-6.9-0.6l-68.7,39.6C283.4,138.2,280.5,148.9,285.4,157.3"
					/>
				<path id="Fill-31" class="st0" d="M302.8,27.2c-5.3-3.1-9.9-4.5-13-5.1c-2.5-0.5-5.1,0.7-6.3,3l-40.1,71.5
					c-4.9,8.7-2,19.9,6.5,24.9c8.5,5,19.3,2,24.2-6.7l40.1-71.5c1.3-2.3,1-5.2-0.6-7.2C311.5,33.7,308.1,30.3,302.8,27.2"/>
				<path id="Fill-33" class="st0" d="M393.7,213.4C376.5,208.1,300.8,187,199,187C97.1,187,21.4,208.1,4.2,213.4
					c-2.4,0.7-4,2.9-4.2,5.4c-0.2,3,0.1,7.2,1.7,12.4c1.6,5.3,3.9,8.9,5.7,11.2c1.5,1.9,3.9,2.7,6.2,2c11-3.3,48.1-13.6,100.9-19.9
					c10.1-1.2,20.3,1,29.1,6.2l43.5,25.9c7.3,4.4,16.4,4.4,23.7,0l43.5-25.9c8.8-5.2,19-7.4,29.1-6.2c52.8,6.3,90,16.6,100.9,19.9
					c2.3,0.7,4.7-0.1,6.2-2c1.8-2.3,4.1-6,5.7-11.2c1.6-5.2,1.9-9.5,1.7-12.4C397.8,216.3,396.1,214.1,393.7,213.4"/>
			</g>
		</g>
	</g>
</g>
</svg>
